<svg width="8" height="12" viewBox="0 0 8 12" fill="none" xmlns="http://www.w3.org/2000/svg">
<path fill-rule="evenodd" clip-rule="evenodd" d="M1.06506 0.440239C1.1057 0.399496 1.15397 0.367171 1.20713 0.345115C1.26028 0.32306 1.31726 0.311707 1.37481 0.311707C1.43235 0.311707 1.48933 0.32306 1.54248 0.345115C1.59564 0.367171 1.64392 0.399496 1.68456 0.440239L6.93456 5.69024C6.9753 5.73088 7.00762 5.77916 7.02968 5.83231C7.05173 5.88546 7.06309 5.94244 7.06309 5.99999C7.06309 6.05753 7.05173 6.11452 7.02968 6.16767C7.00762 6.22082 6.9753 6.2691 6.93456 6.30974L1.68456 11.5597C1.6024 11.6419 1.49098 11.688 1.37481 11.688C1.25863 11.688 1.14721 11.6419 1.06506 11.5597C0.982904 11.4776 0.936752 11.3662 0.936752 11.25C0.936752 11.1338 0.982904 11.0224 1.06506 10.9402L6.00618 5.99999L1.06506 1.05974C1.02431 1.0191 0.991987 0.97082 0.969932 0.917668C0.947876 0.864516 0.936523 0.807535 0.936523 0.749989C0.936523 0.692442 0.947876 0.635461 0.969932 0.582309C0.991987 0.529157 1.02431 0.480879 1.06506 0.440239Z" fill="white"/>
</svg>
