<svg width="16" height="16" viewBox="0 0 16 16" fill="none" xmlns="http://www.w3.org/2000/svg">
<path fill-rule="evenodd" clip-rule="evenodd" d="M10.8539 5.14604C10.9005 5.19248 10.9374 5.24766 10.9626 5.30841C10.9878 5.36915 11.0008 5.43427 11.0008 5.50004C11.0008 5.56581 10.9878 5.63093 10.9626 5.69167C10.9374 5.75242 10.9005 5.80759 10.8539 5.85404L7.8539 8.85404C7.80745 8.9006 7.75228 8.93754 7.69153 8.96275C7.63079 8.98796 7.56567 9.00093 7.4999 9.00093C7.43413 9.00093 7.36901 8.98796 7.30827 8.96275C7.24752 8.93754 7.19235 8.9006 7.1459 8.85404L5.6459 7.35404C5.59941 7.30755 5.56254 7.25236 5.53738 7.19162C5.51222 7.13088 5.49927 7.06578 5.49927 7.00004C5.49927 6.9343 5.51222 6.86919 5.53738 6.80846C5.56254 6.74772 5.59941 6.69253 5.6459 6.64604C5.69239 6.59955 5.74758 6.56267 5.80832 6.53752C5.86906 6.51236 5.93416 6.49941 5.9999 6.49941C6.06564 6.49941 6.13074 6.51236 6.19148 6.53752C6.25222 6.56267 6.30741 6.59955 6.3539 6.64604L7.4999 7.79304L10.1459 5.14604C10.1923 5.09948 10.2475 5.06253 10.3083 5.03733C10.369 5.01212 10.4341 4.99915 10.4999 4.99915C10.5657 4.99915 10.6308 5.01212 10.6915 5.03733C10.7523 5.06253 10.8075 5.09948 10.8539 5.14604Z" fill="#414141"/>
<path d="M2 2C2 1.46957 2.21071 0.960859 2.58579 0.585786C2.96086 0.210714 3.46957 0 4 0L12 0C12.5304 0 13.0391 0.210714 13.4142 0.585786C13.7893 0.960859 14 1.46957 14 2V15.5C14 15.5904 13.9754 15.6792 13.9289 15.7568C13.8824 15.8343 13.8157 15.8979 13.736 15.9405C13.6563 15.9832 13.5664 16.0035 13.4761 15.9992C13.3858 15.9948 13.2983 15.9661 13.223 15.916L8 13.101L2.777 15.916C2.70171 15.9661 2.61423 15.9948 2.52389 15.9992C2.43355 16.0035 2.34373 15.9832 2.264 15.9405C2.18427 15.8979 2.1176 15.8343 2.07111 15.7568C2.02462 15.6792 2.00005 15.5904 2 15.5V2ZM4 1C3.73478 1 3.48043 1.10536 3.29289 1.29289C3.10536 1.48043 3 1.73478 3 2V14.566L7.723 12.084C7.80506 12.0294 7.90143 12.0003 8 12.0003C8.09857 12.0003 8.19494 12.0294 8.277 12.084L13 14.566V2C13 1.73478 12.8946 1.48043 12.7071 1.29289C12.5196 1.10536 12.2652 1 12 1H4Z" fill="#414141"/>
</svg>
