<svg width="18" height="18" viewBox="0 0 18 18" fill="none" xmlns="http://www.w3.org/2000/svg">
<path d="M0.218971 1.28097C0.149239 1.21124 0.0939246 1.12846 0.056186 1.03735C0.0184473 0.946237 -0.000976562 0.848587 -0.000976562 0.749971C-0.000976563 0.651355 0.0184473 0.553705 0.056186 0.462596C0.0939246 0.371487 0.149239 0.288703 0.218971 0.218971C0.288703 0.149239 0.371487 0.0939246 0.462596 0.056186C0.553705 0.0184473 0.651355 -0.000976563 0.749971 -0.000976562C0.848587 -0.000976562 0.946237 0.0184473 1.03735 0.056186C1.12846 0.0939246 1.21124 0.149239 1.28097 0.218971L8.99997 7.93947L16.719 0.218971C16.7887 0.149239 16.8715 0.0939246 16.9626 0.056186C17.0537 0.0184473 17.1514 -0.000976562 17.25 -0.000976562C17.3486 -0.000976562 17.4462 0.0184473 17.5373 0.056186C17.6285 0.0939246 17.7112 0.149239 17.781 0.218971C17.8507 0.288703 17.906 0.371487 17.9438 0.462596C17.9815 0.553705 18.0009 0.651355 18.0009 0.749971C18.0009 0.848587 17.9815 0.946237 17.9438 1.03735C17.906 1.12846 17.8507 1.21124 17.781 1.28097L10.0605 8.99997L17.781 16.719C17.8507 16.7887 17.906 16.8715 17.9438 16.9626C17.9815 17.0537 18.0009 17.1514 18.0009 17.25C18.0009 17.3486 17.9815 17.4462 17.9438 17.5373C17.906 17.6285 17.8507 17.7112 17.781 17.781C17.7112 17.8507 17.6285 17.906 17.5373 17.9438C17.4462 17.9815 17.3486 18.0009 17.25 18.0009C17.1514 18.0009 17.0537 17.9815 16.9626 17.9438C16.8715 17.906 16.7887 17.8507 16.719 17.781L8.99997 10.0605L1.28097 17.781C1.21124 17.8507 1.12846 17.906 1.03735 17.9438C0.946237 17.9815 0.848587 18.0009 0.749971 18.0009C0.651355 18.0009 0.553705 17.9815 0.462596 17.9438C0.371487 17.906 0.288703 17.8507 0.218971 17.781C0.149239 17.7112 0.0939246 17.6285 0.056186 17.5373C0.0184473 17.4462 -0.000976563 17.3486 -0.000976562 17.25C-0.000976562 17.1514 0.0184473 17.0537 0.056186 16.9626C0.0939246 16.8715 0.149239 16.7887 0.218971 16.719L7.93947 8.99997L0.218971 1.28097Z" fill="black"/>
</svg>
